<?xml version="1.0" encoding="UTF-8"?>
<svg xmlns="http://www.w3.org/2000/svg" xmlns:xlink="http://www.w3.org/1999/xlink" width="16pt" height="16pt" viewBox="0 0 16 16" version="1.1">
<g id="surface1">
<path style=" stroke:none;fill-rule:nonzero;fill:rgb(0%,0%,0%);fill-opacity:1;" d="M 5.175781 0.375 C 2.949219 1.226562 0.875 3.425781 0.25 5.601562 C -0.199219 7.25 0.0234375 10.125 0.699219 11.550781 C 1.449219 13.050781 2.949219 14.550781 4.449219 15.300781 C 6.148438 16.125 9.851562 16.125 11.550781 15.300781 C 13.050781 14.550781 14.550781 13.050781 15.300781 11.550781 C 16.125 9.851562 16.125 6.148438 15.300781 4.449219 C 14.550781 2.949219 13.050781 1.449219 11.550781 0.699219 C 10.074219 -0.0234375 6.675781 -0.199219 5.175781 0.375 Z M 12 7.449219 C 12 11.050781 11.949219 11.476562 11.523438 11.851562 C 11.226562 12.125 10.75 12.25 10.226562 12.199219 C 9.449219 12.125 9.226562 11.875 7.75 9.648438 L 6.125 7.148438 L 5.976562 12.25 L 3.75 12.25 L 3.75 8.574219 C 3.75 5.148438 3.773438 4.875 4.300781 4.324219 C 4.648438 3.949219 5.125 3.75 5.675781 3.75 C 6.574219 3.75 6.773438 3.949219 8.898438 7.375 L 10 9.125 L 10 3.5 L 12 3.5 Z M 12 7.449219 "/>
</g>
</svg>

