<?xml version="1.0" standalone="no"?>
<!DOCTYPE svg PUBLIC "-//W3C//DTD SVG 20010904//EN"
 "http://www.w3.org/TR/2001/REC-SVG-20010904/DTD/svg10.dtd">
<svg version="1.0" xmlns="http://www.w3.org/2000/svg"
 width="64.000000pt" height="64.000000pt" viewBox="0 0 64.000000 64.000000"
 preserveAspectRatio="xMidYMid meet">
<metadata>
Created by potrace 1.15, written by Peter Selinger 2001-2017
</metadata>
<g transform="translate(0.000000,64.000000) scale(0.100000,-0.100000)"
fill="#000000" stroke="none">
<path d="M207 625 c-89 -34 -172 -122 -197 -209 -18 -66 -9 -181 18 -238 30
-60 90 -120 150 -150 68 -33 216 -33 284 0 60 30 120 90 150 150 33 68 33 216
0 284 -30 60 -90 120 -150 150 -59 29 -195 36 -255 13z m273 -283 c0 -144 -2
-161 -19 -176 -12 -11 -31 -16 -52 -14 -31 3 -40 13 -99 102 l-65 100 -3 -102
-3 -102 -44 0 -45 0 0 147 c0 137 1 148 22 170 14 15 33 23 55 23 36 0 44 -8
129 -145 l44 -70 0 113 0 112 40 0 40 0 0 -158z"/>
</g>
</svg>

